<?xml version="1.0" encoding="utf-8"?>
<!-- Generator: Adobe Illustrator 24.3.0, SVG Export Plug-In . SVG Version: 6.00 Build 0)  -->
<svg version="1.1" id="Camada_1" xmlns="http://www.w3.org/2000/svg" xmlns:xlink="http://www.w3.org/1999/xlink" x="0px" y="0px"
	 viewBox="0 0 20 20" style="enable-background:new 0 0 20 20;" xml:space="preserve">
<g id="outline">
	<path d="M15.5,16h-4.7c-0.6,0-1,0.4-1,1s0.4,1,1,1h4.7c0.6,0,1-0.4,1-1S16.1,16,15.5,16z M15.5,17.3h-4.7c-0.2,0-0.3-0.1-0.3-0.3
		s0.1-0.3,0.3-0.3h4.7c0.2,0,0.3,0.1,0.3,0.3S15.7,17.3,15.5,17.3z"/>
	<path d="M18.8,15c0-0.2-0.2-0.3-0.3-0.3h-0.7v-1c0-0.2-0.1-0.3-0.3-0.3h-0.3V13c0-0.4-0.3-0.8-0.7-0.9v-1.1c0-0.5-0.4-0.9-0.9-0.9
		h-0.2c-0.1,0-0.2-0.1-0.2-0.2V9.5c0-0.7-0.5-1.2-1.2-1.2h-0.5c-0.2,0-0.3,0.1-0.3,0.3v1.2c0,0.5-0.4,0.8-0.8,0.8h-1.5
		c-0.6,0-1,0.4-1,1v0.4c-0.4,0.1-0.7,0.5-0.7,0.9v0.3H8.8c-0.2,0-0.3,0.1-0.3,0.3v1H8.2c-0.2,0-0.3,0.1-0.3,0.3l-0.3,2.9V7.7
		c0-0.2-0.1-0.3-0.3-0.3H6.8v-2c0,0,0,0,0-0.1L6.5,3.6c0-0.2-0.2-0.3-0.3-0.3H5.8V2h1C7,2,7.2,1.9,7.2,1.7V0.3C7.2,0.1,7,0,6.8,0
		H4.5c0,0-0.1,0-0.1,0L2.7,0.7C2.6,0.7,2.5,0.9,2.5,1v2.3H2.2C2,3.3,1.9,3.4,1.8,3.6L1.5,5.3c0,0,0,0,0,0.1v2H1.2
		C1,7.3,0.8,7.5,0.8,7.7V19c0,0.6,0.4,1,1,1h4.7c0.6,0,1-0.4,1-1v-0.5c0.1,0.3,0.2,0.7,0.4,0.9C8.2,19.8,8.7,20,9.2,20h8.3
		c0.5,0,0.9-0.2,1.2-0.6c0.4-0.4,0.5-0.9,0.5-1.5L18.8,15z M3.2,1.2l1.4-0.6h1.9v0.7h-1c-0.2,0-0.3,0.1-0.3,0.3v1.7h-2V1.2z
		 M2.2,5.4L2.4,4h3.5l0.3,1.4v2h-4V5.4z M6.8,19c0,0.2-0.1,0.3-0.3,0.3H1.8c-0.2,0-0.3-0.1-0.3-0.3V9.3h5.3V19z M6.8,8.7H1.5V8h5.3
		V8.7z M9.8,13c0-0.2,0.1-0.3,0.3-0.3h1.7V12h-1.3v-0.3c0-0.2,0.1-0.3,0.3-0.3h1.5c0.8,0,1.5-0.7,1.5-1.5V9H14
		c0.3,0,0.5,0.2,0.5,0.5v0.2c0,0.5,0.4,0.9,0.9,0.9h0.2c0.1,0,0.2,0.1,0.2,0.2V12h-2.3v0.7h2.7c0.2,0,0.3,0.1,0.3,0.3v0.3H9.8V13z
		 M9.2,14h8v0.7h-8V14z M18.2,19c-0.2,0.2-0.4,0.3-0.7,0.4H9.2c-0.3,0-0.5-0.1-0.7-0.4c-0.2-0.3-0.3-0.6-0.3-0.9l0.3-2.7h9.7
		l0.3,2.7C18.5,18.4,18.4,18.7,18.2,19z"/>
	<path d="M17.8,16.6l-0.7,0.1l0.3,1.3h-0.9v0.7h0.9c0.4,0,0.7-0.3,0.7-0.7c0,0,0-0.1,0-0.1L17.8,16.6z"/>
	<path d="M2.5,18h1.3c0.2,0,0.3-0.1,0.3-0.3v-7.3C4.2,10.1,4,10,3.8,10H2.5c-0.2,0-0.3,0.1-0.3,0.3v7.3C2.2,17.9,2.3,18,2.5,18z
		 M2.8,10.7h0.7v6.7H2.8V10.7z"/>
	<rect x="5.5" y="10" width="0.7" height="0.7"/>
	<rect x="5.5" y="11.3" width="0.7" height="0.7"/>
	<path d="M2.8,5v1.3h0.7v-1h0.7V4.7h-1C3,4.7,2.8,4.8,2.8,5z"/>
</g>
</svg>
