<?xml version="1.0"?>
<svg xmlns="http://www.w3.org/2000/svg" id="Layer_1" data-name="Layer 1" viewBox="0 0 512 512" width="512" height="512"><path d="M403.22,202.93a91.316,91.316,0,0,0-140.347-77.02,6,6,0,1,0,6.455,10.116,79.373,79.373,0,1,1-16.242,13.733,6,6,0,0,0-8.9-8.049A91.3,91.3,0,1,0,403.22,202.93Z"/><path d="M456.9,368H444V344.92a5.588,5.588,0,0,0-5.58-5.92H374V312.3A126.358,126.358,0,0,0,437.68,202.93c0-69.394-56.411-125.85-125.8-125.85S186.213,133.536,186.213,202.93c0,45.42,23.787,86.985,63.787,109.381V339H185.42c-3.314,0-6.42,2.606-6.42,5.92V368H166.94a6,6,0,0,0-6,6,61.069,61.069,0,0,0,61,61H401.9a61.072,61.072,0,0,0,61-61.06,5.948,5.948,0,0,0-6-5.94ZM198.07,203.169c0-62.777,51.073-113.969,113.85-113.969a113.918,113.918,0,0,1,0,227.834c-18.6,0-37.048-5.034-53.353-13.034h0A114.27,114.27,0,0,1,198.07,203.169ZM362,318.309V339H262V318.316c15,6.858,32.691,10.464,50,10.464A125.875,125.875,0,0,0,362,318.309Zm74.548,90.338A48.68,48.68,0,0,1,401.9,423H221.94a49.241,49.241,0,0,1-48.634-43H362.329a6,6,0,0,0,0-12H191V351H432v17H391.666a6,6,0,1,0,0,12h58.873A48.117,48.117,0,0,1,436.548,408.647Z"/><path d="M163.7,28.815l-2.639-1.788a94.651,94.651,0,0,0-106.694.007l-2.633,1.782a6,6,0,0,0-2.445,6.471l23.66,91.5,10.576,350.6A24.529,24.529,0,0,0,108.043,501h.159a24.233,24.233,0,0,0,24.357-23.667l9.887-350.657.2.094,23.5-91.495A6,6,0,0,0,163.7,28.815ZM127.9,217H111.718a6,6,0,0,0,0,12h15.841l-7,248a12.3,12.3,0,0,1-12.438,12h-.082a12.458,12.458,0,0,1-12.521-11.98L88.037,229H92.5a6,6,0,1,0,0-12H87.676l-2.827-93.768a52.164,52.164,0,0,1,45.691,0Zm6.25-105.326c-.919-.416-1.848-.806-2.783-1.177l7.264-50.391a6,6,0,0,0-11.877-1.712l-7.022,48.716q-3-.57-6.031-.856l.021-18.5A5.789,5.789,0,0,0,107.725,82h-.007a5.9,5.9,0,0,0-6,5.868l-.022,18.385q-2.895.271-5.764.807L89.6,70.963a6,6,0,0,0-11.821,2.074l6.551,37.338c-.978.383-1.951.782-2.913,1.215l-19.447-75.2a82.692,82.692,0,0,1,91.5,0Z"/></svg>
